PathFileType	4	(X/Y/Z)	D:\Share\Shared_Data\Ergonomics\Sit To Stand Pertubation\S2\Perturbed.trc
DataRate	CameraRate	NumFrames	NumMarkers	Units	OrigDataRate	OrigDataStartFrame	OrigNumFrames	
100	100	19	18	m	100	14484	221
Frame#	Time	R_Toe			R_ASIS			R_Pelvis			V_Sacral			L_Pelvis			L_ASIS			Clavical			R_Acromium			L_Acromium			Sternum			Torso			R_Thigh_Med			R_Thigh_Lat			R_Thigh			R_Shank_Med			R_Shank_Lat			R_Shank			R_Heel			
		X1	Y1	Z1	X2	Y2	Z2	X3	Y3	Z3	X4	Y4	Z4	X5	Y5	Z5	X6	Y6	Z6	X7	Y7	Z7	X8	Y8	Z8	X9	Y9	Z9	X10	Y10	Z10	X11	Y11	Z11	X12	Y12	Z12	X13	Y13	Z13	X14	Y14	Z14	X15	Y15	Z15	X16	Y16	Z16	X17	Y17	Z17	X18	Y18	Z18	

14484	144.83	0.4352334	0.06393037	0.14754454	0.45072678	1.0250779	0.15063956	0.37620145	1.0248475	0.19809746	0.22815891	1.0171321	0.040743816	0.31538141	1.0223917	-0.14307626	0.41269482	1.0347775	-0.12448895	0.43250586	1.4524474	0.010047646	0.33821091	1.4772928	0.21923062	0.31676828	1.4780284	-0.17096297	0.48425232	1.2950078	0.0045751371	0.43785944	1.4124922	-0.10619525	0.34921063	0.49572955	0.094232109	0.33600204	0.51995355	0.18368896	0.4388754	0.67522882	0.16652583	0.30324521	0.10834404	0.10293793	0.27601031	0.10164143	0.19274217	0.29769281	0.3761788	0.21368587	0.19879291	0.060972492	0.142093
14485	144.84	0.43523727	0.063931786	0.14752458	0.45075568	1.0250636	0.15044936	0.37629974	1.0248303	0.19784988	0.2282321	1.0171379	0.040455902	0.31550153	1.0224645	-0.14331267	0.41281992	1.034837	-0.12470204	0.43271558	1.452444	0.010042875	0.3384166	1.4772778	0.21921263	0.31703574	1.4782078	-0.17097234	0.48437662	1.2949888	0.0045036173	0.43805661	1.4125536	-0.10622247	0.34931934	0.49571881	0.09407251	0.33607895	0.51995703	0.18351732	0.43891724	0.67522552	0.16642931	0.30328006	0.10834651	0.10289349	0.2760256	0.1016719	0.1926927	0.29775668	0.37622656	0.21353087	0.19876758	0.061199619	0.14216322
14486	144.85	0.43523987	0.063932098	0.14750716	0.4507579	1.0250459	0.15025706	0.37633463	1.024802	0.1975966	0.22827998	1.0171346	0.040145615	0.31561514	1.0225331	-0.14357219	0.41293588	1.034884	-0.12491796	0.43290186	1.4524359	0.010035293	0.33860336	1.4772603	0.21919502	0.31727557	1.4783868	-0.17097125	0.48447668	1.2949651	0.0044238501	0.43822595	1.4126117	-0.10625246	0.3494104	0.49570343	0.093917252	0.33614764	0.51995758	0.18335297	0.43894821	0.67521881	0.16633424	0.30331067	0.10834887	0.10285693	0.2760397	0.10169634	0.19265234	0.29782092	0.3762655	0.21338396	0.19873608	0.06143412	0.14224533
14487	144.86	0.43524081	0.063931168	0.1474928	0.45074023	1.025022	0.15006123	0.37631995	1.0247625	0.19734094	0.22830707	1.0171219	0.039823227	0.31572134	1.0225945	-0.14384837	0.41304068	1.034917	-0.12513599	0.43306412	1.4524189	0.010024899	0.33876822	1.4772318	0.21917848	0.31748804	1.4785596	-0.17096101	0.4845538	1.2949324	0.0043345561	0.4383671	1.4126614	-0.10628684	0.34947858	0.49568323	0.093765137	0.33620612	0.51995471	0.18319608	0.43896884	0.67520605	0.16622926	0.30333545	0.10834943	0.10282745	0.27605179	0.10171365	0.1926212	0.29788184	0.37629349	0.21324786	0.19869991	0.061660473	0.14233357
14488	144.87	0.43523987	0.063929104	0.14748169	0.45070966	1.0249908	0.14986041	0.37627094	1.0247135	0.19708531	0.22831798	1.0170995	0.039499191	0.3158176	1.0226459	-0.14413438	0.41313171	1.0349357	-0.12535593	0.43320184	1.4523893	0.010011671	0.33890839	1.4771859	0.21916316	0.31767236	1.4787206	-0.1709445	0.4846095	1.2948871	0.0042347407	0.43847998	1.4126979	-0.10632692	0.34951923	0.49565863	0.093615707	0.33625089	0.51994794	0.18304587	0.43897864	0.67518536	0.16610516	0.30335342	0.10834706	0.10280396	0.27606085	0.10172333	0.19259851	0.29793408	0.37630945	0.21312404	0.19865958	0.061872044	0.14242509
14489	144.88	0.43523712	0.063926243	0.14747392	0.45067184	1.024951	0.14965305	0.37620319	1.0246566	0.1968306	0.22831689	1.0170679	0.039182705	0.31590002	1.0226849	-0.14442432	0.41320554	1.0349404	-0.12557758	0.43331479	1.4523455	0.0099954691	0.33902127	1.477118	0.21914859	0.31782745	1.4788655	-0.17092532	0.48464444	1.294827	0.0041241999	0.43856491	1.412718	-0.10637356	0.34952893	0.49563043	0.093469086	0.33627808	0.51993689	0.18290074	0.43897632	0.67515656	0.16595575	0.30336407	0.10834121	0.10278533	0.27606577	0.1017254	0.19258298	0.29797208	0.37631375	0.21301292	0.19861578	0.06206554	0.14251772
14490	144.89	0.43523273	0.063923023	0.14746941	0.45063074	1.024903	0.14943747	0.37613086	1.0245936	0.19657669	0.22830676	1.0170278	0.038880348	0.31596405	1.0227101	-0.1447133	0.41325824	1.0349327	-0.1258008	0.43340237	1.452288	0.0099759951	0.33910434	1.4770254	0.2191335	0.31795215	1.4789927	-0.17090715	0.48465781	1.2947515	0.0040038204	0.43862219	1.4127206	-0.10642705	0.34950537	0.49559946	0.093325676	0.33628458	0.51992151	0.18275874	0.43895999	0.67512073	0.16577817	0.30336731	0.10833183	0.10277061	0.27606625	0.10172037	0.19257323	0.29799139	0.37630765	0.21291406	0.19856985	0.062238144	0.14260905
14491	144.9	0.43522714	0.063919827	0.14746799	0.45058774	1.0248462	0.14921199	0.37606476	1.0245259	0.19632336	0.22828886	1.0169813	0.038595184	0.31600467	1.0227211	-0.14499736	0.41328583	1.034915	-0.12602593	0.43346368	1.4522185	0.0099526958	0.33915567	1.4769072	0.21911601	0.3180452	1.4791018	-0.17089362	0.48464725	1.2946617	0.0038752968	0.43865204	1.4127056	-0.10648732	0.34944714	0.49556586	0.093185654	0.33626828	0.51990222	0.18261812	0.43892712	0.67507983	0.16557291	0.30336337	0.10831917	0.10275894	0.2760625	0.10170934	0.19256775	0.29798978	0.3762933	0.21282571	0.19852324	0.062388279	0.14269707
14492	144.91	0.43522092	0.063917011	0.14746918	0.45054196	1.024782	0.14897528	0.37601013	1.0244561	0.19607088	0.22826277	1.0169302	0.038327152	0.31601724	1.0227191	-0.14527399	0.41328421	1.03489	-0.12625414	0.43349744	1.4521409	0.0099247284	0.33917407	1.4767653	0.21909404	0.31810535	1.4791947	-0.17088817	0.48460971	1.2945603	0.0037403672	0.43865378	1.4126748	-0.10655412	0.3493541	0.49552954	0.093048462	0.33622858	0.51988019	0.18247731	0.43887485	0.67503589	0.16534369	0.30335291	0.10830374	0.10274983	0.27605527	0.10169368	0.1925654	0.29796716	0.37627338	0.21274525	0.19847731	0.062516159	0.14278015
14493	144.92	0.43521442	0.063914932	0.14747212	0.45049054	1.0247117	0.14872717	0.37596536	1.024386	0.19581998	0.22822665	1.0168772	0.038074432	0.31599759	1.0227071	-0.14554309	0.41325012	1.0348605	-0.12648739	0.43350217	1.4520594	0.0098910208	0.33915903	1.4766031	0.21906561	0.31813129	1.4792754	-0.17089404	0.48454294	1.2944512	0.0036001115	0.43862613	1.4126311	-0.10662745	0.34922745	0.49548987	0.092912392	0.33616705	0.51985657	0.1823354	0.43880075	0.67499048	0.16509665	0.30333716	0.10828652	0.10274311	0.27604572	0.10167487	0.19256519	0.29792526	0.37625018	0.21266974	0.19843324	0.062623367	0.14285696
14494	144.93	0.43520782	0.063913815	0.14747592	0.45042917	1.0246383	0.1484686	0.37592252	1.0243179	0.19557175	0.22817746	1.0168237	0.037834721	0.31594269	1.0226884	-0.14580608	0.4131821	1.0348292	-0.12672717	0.43347687	1.4519785	0.0098503599	0.33911084	1.4764258	0.21902902	0.31812192	1.4793475	-0.17091371	0.48444617	1.2943395	0.0034547398	0.43856754	1.4125785	-0.10670754	0.34907126	0.49544626	0.092774956	0.33608716	0.51983331	0.18219225	0.43870374	0.67494446	0.16483949	0.30331793	0.10826882	0.1027388	0.27603467	0.10165413	0.19256639	0.29786725	0.3762258	0.21259645	0.19839192	0.062711792	0.14292603
14495	144.94	0.43520114	0.063913769	0.14747981	0.45035281	1.0245659	0.14820096	0.37587051	1.0242542	0.19532755	0.22811116	1.0167703	0.037605709	0.31585074	1.0226668	-0.14606412	0.41308081	1.0347983	-0.12697339	0.43342096	1.4519022	0.0098014355	0.33903024	1.4762396	0.21898264	0.31807614	1.4794158	-0.17094853	0.48432065	1.294231	0.00330388	0.43847702	1.4125219	-0.10679471	0.34889307	0.49539886	0.092634209	0.33599396	0.51981207	0.18204854	0.43858429	0.67489905	0.16458014	0.30329684	0.10825185	0.10273682	0.27602289	0.10163261	0.19256847	0.29779749	0.37620169	0.21252301	0.19835431	0.062782631	0.14298564
14496	144.95	0.43519458	0.063914871	0.14748309	0.45025604	1.0244983	0.14792589	0.37579941	1.0241969	0.19508817	0.22802306	1.0167174	0.03738538	0.31572153	1.0226459	-0.14631737	0.4129476	1.0347704	-0.12722428	0.43333441	1.4518333	0.0097429447	0.33891876	1.476052	0.21892474	0.31799356	1.4794827	-0.17099849	0.48416882	1.2941296	0.0031470149	0.43835449	1.4124669	-0.10688913	0.34870322	0.49534924	0.092490128	0.33589304	0.51979407	0.18190585	0.4384447	0.67485516	0.16432559	0.30327496	0.10823637	0.10273689	0.27601093	0.10161137	0.19257104	0.29772113	0.37617871	0.21244809	0.19832132	0.062836094	0.14303435
14497	144.96	0.43518829	0.063917221	0.14748532	0.45013403	1.0244388	0.14764569	0.37570224	1.0241476	0.19485345	0.2279081	1.0166651	0.037172127	0.31555597	1.0226283	-0.14656551	0.41278305	1.0347468	-0.12747738	0.43321793	1.4517723	0.0096738052	0.33877896	1.4758706	0.21885439	0.31787482	1.4795511	-0.17106224	0.48399301	1.2940388	0.0029838674	0.43820129	1.4124193	-0.10699075	0.34851248	0.4952999	0.09234507	0.33578928	0.51977972	0.1817661	0.43828915	0.67481537	0.16408076	0.30325308	0.10822263	0.10273851	0.27599942	0.10159114	0.19257405	0.29764319	0.37615692	0.21237151	0.19829369	0.062871933	0.14307132
14498	144.97	0.43518228	0.063920742	0.14748627	0.44998248	1.0243907	0.14736382	0.37557422	1.0241073	0.19462289	0.22776138	1.0166137	0.036965042	0.31535544	1.0226149	-0.14680893	0.41258658	1.0347297	-0.12773056	0.43307306	1.4517195	0.0095933838	0.33861432	1.4757024	0.21877216	0.31772192	1.4796232	-0.17113853	0.48379465	1.2939595	0.0028146136	0.43802029	1.412384	-0.10709937	0.34832953	0.49525397	0.092202805	0.33568607	0.51976868	0.18163113	0.43812329	0.67478247	0.16384807	0.30323157	0.10821042	0.10274103	0.27598877	0.10157236	0.19257765	0.29756769	0.37613593	0.21229482	0.19827147	0.062890781	0.14309735
14499	144.98	0.43517633	0.063925064	0.14748633	0.44979779	1.0243553	0.1470838	0.37541162	1.024076	0.19439609	0.22757881	1.0165644	0.036763729	0.31512164	1.0226065	-0.14704878	0.41235672	1.0347202	-0.12798257	0.43290231	1.451674	0.0095016127	0.33842892	1.475554	0.21868015	0.31753787	1.4796998	-0.17122672	0.48357379	1.2938911	0.0026398315	0.43781503	1.4123633	-0.10721451	0.34815887	0.49521378	0.092067368	0.33558502	0.51975946	0.1815022	0.43795218	0.67475922	0.16362787	0.30321045	0.10819937	0.10274402	0.2759791	0.10155508	0.19258211	0.29749716	0.37611481	0.21222086	0.19825398	0.062894897	0.14311497
14500	144.99	0.4351702	0.063929634	0.14748605	0.44957672	1.0243325	0.14680844	0.37521198	1.0240527	0.19417262	0.22735738	1.016518	0.036567665	0.31485602	1.0226028	-0.14728653	0.41209219	1.034719	-0.12823274	0.43270871	1.451634	0.0093990173	0.33822733	1.4754294	0.21858055	0.31732651	1.4797815	-0.17132622	0.48332938	1.2938312	0.0024605615	0.43758936	1.4123574	-0.10733546	0.34800037	0.4951803	0.091942055	0.33548624	0.51975104	0.1813797	0.43777881	0.67474646	0.16341966	0.30318961	0.10818939	0.10274773	0.27597034	0.10153908	0.19258781	0.2974321	0.37609274	0.21215326	0.19824028	0.062887409	0.14312744
14501	145	0.43516357	0.063934162	0.14748589	0.4493176	1.0243209	0.14653949	0.37497501	1.0240358	0.19395149	0.22709593	1.016476	0.036375782	0.31455942	1.0226031	-0.14752271	0.41179187	1.0347264	-0.12848042	0.4324957	1.4515986	0.0092866402	0.33801431	1.47533	0.21847481	0.31709198	1.4798683	-0.1714351	0.48306021	1.2937776	0.0022784741	0.43734613	1.4123644	-0.10746128	0.34785056	0.49515335	0.091828865	0.33538834	0.51974182	0.18126337	0.43760281	0.67474323	0.16322333	0.30316901	0.10818067	0.10275305	0.27596219	0.10152385	0.19259512	0.29737161	0.37606854	0.21209506	0.19822925	0.062871449	0.14313783
14502	145.01	0.43515634	0.063938789	0.1474859	0.449021	1.0243181	0.14627811	0.37470224	1.0240228	0.19373169	0.22679564	1.0164387	0.036186989	0.31423184	1.0226071	-0.14775632	0.41145529	1.0347415	-0.12872443	0.43226657	1.4515669	0.0091658831	0.33779419	1.4752551	0.21836346	0.31683826	1.4799594	-0.17154868	0.48276575	1.2937273	0.002095521	0.43708728	1.4123794	-0.10759143	0.34770401	0.49513153	0.091728317	0.33528885	0.51973102	0.18115236	0.43742111	0.67474707	0.16303926	0.30314853	0.10817348	0.10276117	0.27595416	0.10150871	0.19260439	0.29731384	0.37604117	0.21204816	0.19821982	0.062849842	0.14314787
